<svg width="15" height="14" viewBox="0 0 15 14" fill="none" xmlns="http://www.w3.org/2000/svg">
<path fill-rule="evenodd" clip-rule="evenodd" d="M5.99648 6.35451C5.70481 6.35451 5.47419 6.58117 5.47419 6.86784C5.47419 7.14784 5.70481 7.38117 5.99648 7.38117H10.0662V10.5678C10.0662 12.2012 8.71644 13.5345 7.04783 13.5345H3.74454C2.08272 13.5345 0.73291 12.2078 0.73291 10.5745V3.16784C0.73291 1.52784 2.0895 0.201172 3.75132 0.201172H7.0614C8.71644 0.201172 10.0662 1.52784 10.0662 3.16117V6.35451H5.99648ZM12.4863 4.56141L14.433 6.50141C14.533 6.60141 14.5863 6.72807 14.5863 6.86807C14.5863 7.00141 14.533 7.13474 14.433 7.22807L12.4863 9.16807C12.3863 9.26807 12.253 9.32141 12.1263 9.32141C11.993 9.32141 11.8597 9.26807 11.7597 9.16807C11.5597 8.96807 11.5597 8.64141 11.7597 8.44141L12.8263 7.38141H10.0663V6.35474H12.8263L11.7597 5.29474C11.5597 5.09474 11.5597 4.76807 11.7597 4.56808C11.9597 4.36141 12.2863 4.36141 12.4863 4.56141Z" fill="#4F6B7A"/>
</svg>
